<svg id="visual" viewBox="0 0 900 600" width="900" height="600" xmlns="http://www.w3.org/2000/svg" xmlns:xlink="http://www.w3.org/1999/xlink" version="1.1"><rect x="0" y="0" width="900" height="600" fill="#D60202"></rect><defs><linearGradient id="grad1_0" x1="33.3%" y1="100%" x2="100%" y2="0%"><stop offset="20%" stop-color="#29235c" stop-opacity="1"></stop><stop offset="80%" stop-color="#29235c" stop-opacity="1"></stop></linearGradient></defs><defs><linearGradient id="grad1_1" x1="33.3%" y1="100%" x2="100%" y2="0%"><stop offset="20%" stop-color="#29235c" stop-opacity="1"></stop><stop offset="80%" stop-color="#621867" stop-opacity="1"></stop></linearGradient></defs><defs><linearGradient id="grad1_2" x1="33.3%" y1="100%" x2="100%" y2="0%"><stop offset="20%" stop-color="#98005c" stop-opacity="1"></stop><stop offset="80%" stop-color="#621867" stop-opacity="1"></stop></linearGradient></defs><defs><linearGradient id="grad1_3" x1="33.3%" y1="100%" x2="100%" y2="0%"><stop offset="20%" stop-color="#98005c" stop-opacity="1"></stop><stop offset="80%" stop-color="#c2003d" stop-opacity="1"></stop></linearGradient></defs><defs><linearGradient id="grad1_4" x1="33.3%" y1="100%" x2="100%" y2="0%"><stop offset="20%" stop-color="#d60202" stop-opacity="1"></stop><stop offset="80%" stop-color="#c2003d" stop-opacity="1"></stop></linearGradient></defs><defs><linearGradient id="grad2_0" x1="0%" y1="100%" x2="66.7%" y2="0%"><stop offset="20%" stop-color="#29235c" stop-opacity="1"></stop><stop offset="80%" stop-color="#29235c" stop-opacity="1"></stop></linearGradient></defs><defs><linearGradient id="grad2_1" x1="0%" y1="100%" x2="66.7%" y2="0%"><stop offset="20%" stop-color="#621867" stop-opacity="1"></stop><stop offset="80%" stop-color="#29235c" stop-opacity="1"></stop></linearGradient></defs><defs><linearGradient id="grad2_2" x1="0%" y1="100%" x2="66.7%" y2="0%"><stop offset="20%" stop-color="#621867" stop-opacity="1"></stop><stop offset="80%" stop-color="#98005c" stop-opacity="1"></stop></linearGradient></defs><defs><linearGradient id="grad2_3" x1="0%" y1="100%" x2="66.7%" y2="0%"><stop offset="20%" stop-color="#c2003d" stop-opacity="1"></stop><stop offset="80%" stop-color="#98005c" stop-opacity="1"></stop></linearGradient></defs><defs><linearGradient id="grad2_4" x1="0%" y1="100%" x2="66.7%" y2="0%"><stop offset="20%" stop-color="#c2003d" stop-opacity="1"></stop><stop offset="80%" stop-color="#d60202" stop-opacity="1"></stop></linearGradient></defs><g transform="translate(900, 600)"><path d="M-513.8 0C-510.4 -71.6 -507.1 -143.2 -474.7 -196.6C-442.3 -250.1 -380.9 -285.3 -332.3 -332.3C-283.8 -379.3 -248 -438.1 -194.8 -470.3C-141.5 -502.4 -70.8 -508.1 0 -513.8L0 0Z" fill="#cf0027"></path><path d="M-411 0C-408.3 -57.3 -405.6 -114.5 -379.7 -157.3C-353.8 -200 -304.7 -228.3 -265.9 -265.9C-227 -303.5 -198.4 -350.4 -155.8 -376.2C-113.2 -402 -56.6 -406.5 0 -411L0 0Z" fill="#af004f"></path><path d="M-308.3 0C-306.3 -43 -304.2 -85.9 -284.8 -118C-265.4 -150 -228.5 -171.2 -199.4 -199.4C-170.3 -227.6 -148.8 -262.8 -116.9 -282.2C-84.9 -301.5 -42.5 -304.9 0 -308.3L0 0Z" fill="#7e0164"></path><path d="M-205.5 0C-204.2 -28.6 -202.8 -57.3 -189.9 -78.6C-176.9 -100 -152.4 -114.1 -132.9 -132.9C-113.5 -151.7 -99.2 -175.2 -77.9 -188.1C-56.6 -201 -28.3 -203.2 0 -205.5L0 0Z" fill="#462064"></path><path d="M-102.8 0C-102.1 -14.3 -101.4 -28.6 -94.9 -39.3C-88.5 -50 -76.2 -57.1 -66.5 -66.5C-56.8 -75.9 -49.6 -87.6 -39 -94.1C-28.3 -100.5 -14.2 -101.6 0 -102.8L0 0Z" fill="#29235c"></path></g><g transform="translate(0, 0)"><path d="M513.8 0C519.5 79.9 525.3 159.8 474.7 196.6C424.1 233.4 317 227.2 264.5 264.5C211.9 301.8 213.7 382.6 178.7 431.5C143.7 480.3 71.9 497 0 513.8L0 0Z" fill="#cf0027"></path><path d="M411 0C415.6 63.9 420.2 127.8 379.7 157.3C339.2 186.7 253.6 181.7 211.6 211.6C169.5 241.4 171 306.1 143 345.2C115 384.2 57.5 397.6 0 411L0 0Z" fill="#af004f"></path><path d="M308.3 0C311.7 47.9 315.2 95.9 284.8 118C254.4 140.1 190.2 136.3 158.7 158.7C127.1 181.1 128.2 229.6 107.2 258.9C86.2 288.2 43.1 298.2 0 308.3L0 0Z" fill="#7e0164"></path><path d="M205.5 0C207.8 32 210.1 63.9 189.9 78.6C169.6 93.4 126.8 90.9 105.8 105.8C84.7 120.7 85.5 153.1 71.5 172.6C57.5 192.1 28.7 198.8 0 205.5L0 0Z" fill="#462064"></path><path d="M102.8 0C103.9 16 105.1 32 94.9 39.3C84.8 46.7 63.4 45.4 52.9 52.9C42.4 60.4 42.7 76.5 35.7 86.3C28.7 96.1 14.4 99.4 0 102.8L0 0Z" fill="#29235c"></path></g></svg>