<svg id="visual" viewBox="0 0 900 600" width="900" height="600" xmlns="http://www.w3.org/2000/svg" xmlns:xlink="http://www.w3.org/1999/xlink" version="1.1"><rect width="900" height="600" fill="#29235c"></rect><g><g transform="translate(152 127)"><path d="M0 -13.1L13.1 0L0 13.1L-13.1 0Z" fill="#625c98"></path></g><g transform="translate(362 10)"><path d="M0 -5L5 0L0 5L-5 0Z" fill="#625c98"></path></g><g transform="translate(621 54)"><path d="M0 -3L3 0L0 3L-3 0Z" fill="#625c98"></path></g><g transform="translate(843 112)"><path d="M0 -6L6 0L0 6L-6 0Z" fill="#625c98"></path></g><g transform="translate(719 140)"><path d="M0 -12L12 0L0 12L-12 0Z" fill="#625c98"></path></g><g transform="translate(694 254)"><path d="M0 -8L8 0L0 8L-8 0Z" fill="#625c98"></path></g><g transform="translate(494 477)"><path d="M0 -11L11 0L0 11L-11 0Z" fill="#625c98"></path></g><g transform="translate(693 569)"><path d="M0 -11L11 0L0 11L-11 0Z" fill="#625c98"></path></g><g transform="translate(603 216)"><path d="M0 -1L1 0L0 1L-1 0Z" fill="#625c98"></path></g><g transform="translate(159 64)"><path d="M0 -7L7 0L0 7L-7 0Z" fill="#625c98"></path></g><g transform="translate(659 245)"><path d="M0 -8L8 0L0 8L-8 0Z" fill="#625c98"></path></g><g transform="translate(665 375)"><path d="M0 -6L6 0L0 6L-6 0Z" fill="#625c98"></path></g><g transform="translate(515 286)"><path d="M0 -8L8 0L0 8L-8 0Z" fill="#625c98"></path></g><g transform="translate(559 435)"><path d="M0 -10L10 0L0 10L-10 0Z" fill="#625c98"></path></g><g transform="translate(343 185)"><path d="M0 -5L5 0L0 5L-5 0Z" fill="#625c98"></path></g><g transform="translate(250 233)"><path d="M0 -4L4 0L0 4L-4 0Z" fill="#625c98"></path></g><g transform="translate(13 53)"><path d="M0 -8L8 0L0 8L-8 0Z" fill="#625c98"></path></g><g transform="translate(729 54)"><path d="M0 -2L2 0L0 2L-2 0Z" fill="#625c98"></path></g><g transform="translate(315 554)"><path d="M0 -7L7 0L0 7L-7 0Z" fill="#625c98"></path></g><g transform="translate(255 473)"><path d="M0 -7L7 0L0 7L-7 0Z" fill="#625c98"></path></g><g transform="translate(775 521)"><path d="M0 -10L10 0L0 10L-10 0Z" fill="#625c98"></path></g><g transform="translate(888 67)"><path d="M0 -9L9 0L0 9L-9 0Z" fill="#625c98"></path></g><g transform="translate(194 19)"><path d="M0 -2L2 0L0 2L-2 0Z" fill="#625c98"></path></g><g transform="translate(707 397)"><path d="M0 -10L10 0L0 10L-10 0Z" fill="#625c98"></path></g><g transform="translate(720 236)"><path d="M0 -11L11 0L0 11L-11 0Z" fill="#625c98"></path></g><g transform="translate(414 204)"><path d="M0 -8L8 0L0 8L-8 0Z" fill="#625c98"></path></g><g transform="translate(693 154)"><path d="M0 -7L7 0L0 7L-7 0Z" fill="#625c98"></path></g><g transform="translate(647 449)"><path d="M0 -4L4 0L0 4L-4 0Z" fill="#625c98"></path></g><g transform="translate(341 573)"><path d="M0 -7L7 0L0 7L-7 0Z" fill="#625c98"></path></g><g transform="translate(543 340)"><path d="M0 -8L8 0L0 8L-8 0Z" fill="#625c98"></path></g><g transform="translate(131 392)"><path d="M0 -8L8 0L0 8L-8 0Z" fill="#625c98"></path></g><g transform="translate(30 264)"><path d="M0 -6L6 0L0 6L-6 0Z" fill="#625c98"></path></g><g transform="translate(372 206)"><path d="M0 -11L11 0L0 11L-11 0Z" fill="#625c98"></path></g><g transform="translate(563 51)"><path d="M0 -9L9 0L0 9L-9 0Z" fill="#625c98"></path></g><g transform="translate(661 523)"><path d="M0 -8L8 0L0 8L-8 0Z" fill="#625c98"></path></g><g transform="translate(336 445)"><path d="M0 -10L10 0L0 10L-10 0Z" fill="#625c98"></path></g><g transform="translate(266 73)"><path d="M0 -11L11 0L0 11L-11 0Z" fill="#625c98"></path></g><g transform="translate(202 74)"><path d="M0 -3L3 0L0 3L-3 0Z" fill="#625c98"></path></g><g transform="translate(182 114)"><path d="M0 -2L2 0L0 2L-2 0Z" fill="#625c98"></path></g><g transform="translate(14 410)"><path d="M0 -9L9 0L0 9L-9 0Z" fill="#625c98"></path></g><g transform="translate(888 254)"><path d="M0 -9L9 0L0 9L-9 0Z" fill="#625c98"></path></g><g transform="translate(819 589)"><path d="M0 -6L6 0L0 6L-6 0Z" fill="#625c98"></path></g><g transform="translate(323 82)"><path d="M0 -1L1 0L0 1L-1 0Z" fill="#625c98"></path></g><g transform="translate(125 258)"><path d="M0 -1L1 0L0 1L-1 0Z" fill="#625c98"></path></g><g transform="translate(429 274)"><path d="M0 -8L8 0L0 8L-8 0Z" fill="#625c98"></path></g><g transform="translate(235 8)"><path d="M0 -12L12 0L0 12L-12 0Z" fill="#625c98"></path></g><g transform="translate(442 436)"><path d="M0 -5L5 0L0 5L-5 0Z" fill="#625c98"></path></g><g transform="translate(741 212)"><path d="M0 -8L8 0L0 8L-8 0Z" fill="#625c98"></path></g><g transform="translate(888 99)"><path d="M0 -12L12 0L0 12L-12 0Z" fill="#625c98"></path></g><g transform="translate(158 328)"><path d="M0 -7L7 0L0 7L-7 0Z" fill="#625c98"></path></g><g transform="translate(60 113)"><path d="M0 -9L9 0L0 9L-9 0Z" fill="#625c98"></path></g><g transform="translate(844 262)"><path d="M0 -2L2 0L0 2L-2 0Z" fill="#625c98"></path></g><g transform="translate(731 420)"><path d="M0 -1L1 0L0 1L-1 0Z" fill="#625c98"></path></g><g transform="translate(30 346)"><path d="M0 -3L3 0L0 3L-3 0Z" fill="#625c98"></path></g><g transform="translate(893 523)"><path d="M0 -12L12 0L0 12L-12 0Z" fill="#625c98"></path></g><g transform="translate(621 382)"><path d="M0 -12L12 0L0 12L-12 0Z" fill="#625c98"></path></g><g transform="translate(295 427)"><path d="M0 -2L2 0L0 2L-2 0Z" fill="#625c98"></path></g><g transform="translate(255 363)"><path d="M0 -3L3 0L0 3L-3 0Z" fill="#625c98"></path></g><g transform="translate(376 44)"><path d="M0 -4L4 0L0 4L-4 0Z" fill="#625c98"></path></g><g transform="translate(576 134)"><path d="M0 -7L7 0L0 7L-7 0Z" fill="#625c98"></path></g><g transform="translate(461 338)"><path d="M0 -8L8 0L0 8L-8 0Z" fill="#625c98"></path></g><g transform="translate(478 507)"><path d="M0 -5L5 0L0 5L-5 0Z" fill="#625c98"></path></g><g transform="translate(461 258)"><path d="M0 -9L9 0L0 9L-9 0Z" fill="#625c98"></path></g><g transform="translate(15 122)"><path d="M0 -1L1 0L0 1L-1 0Z" fill="#625c98"></path></g><g transform="translate(168 292)"><path d="M0 -12L12 0L0 12L-12 0Z" fill="#625c98"></path></g><g transform="translate(823 201)"><path d="M0 -8L8 0L0 8L-8 0Z" fill="#625c98"></path></g><g transform="translate(385 429)"><path d="M0 -10L10 0L0 10L-10 0Z" fill="#625c98"></path></g><g transform="translate(101 90)"><path d="M0 -9L9 0L0 9L-9 0Z" fill="#625c98"></path></g><g transform="translate(408 244)"><path d="M0 -1L1 0L0 1L-1 0Z" fill="#625c98"></path></g><g transform="translate(807 479)"><path d="M0 -5L5 0L0 5L-5 0Z" fill="#625c98"></path></g><g transform="translate(2 309)"><path d="M0 -11L11 0L0 11L-11 0Z" fill="#625c98"></path></g><g transform="translate(38 83)"><path d="M0 -11L11 0L0 11L-11 0Z" fill="#625c98"></path></g><g transform="translate(599 577)"><path d="M0 -3L3 0L0 3L-3 0Z" fill="#625c98"></path></g><g transform="translate(547 528)"><path d="M0 -2L2 0L0 2L-2 0Z" fill="#625c98"></path></g><g transform="translate(524 422)"><path d="M0 -10L10 0L0 10L-10 0Z" fill="#625c98"></path></g><g transform="translate(770 382)"><path d="M0 -9L9 0L0 9L-9 0Z" fill="#625c98"></path></g><g transform="translate(755 128)"><path d="M0 -5L5 0L0 5L-5 0Z" fill="#625c98"></path></g><g transform="translate(62 379)"><path d="M0 -5L5 0L0 5L-5 0Z" fill="#625c98"></path></g><g transform="translate(686 344)"><path d="M0 -6L6 0L0 6L-6 0Z" fill="#625c98"></path></g><g transform="translate(595 393)"><path d="M0 -8L8 0L0 8L-8 0Z" fill="#625c98"></path></g><g transform="translate(526 484)"><path d="M0 -5L5 0L0 5L-5 0Z" fill="#625c98"></path></g><g transform="translate(635 283)"><path d="M0 -9L9 0L0 9L-9 0Z" fill="#625c98"></path></g><g transform="translate(897 201)"><path d="M0 -10L10 0L0 10L-10 0Z" fill="#625c98"></path></g><g transform="translate(190 311)"><path d="M0 -7L7 0L0 7L-7 0Z" fill="#625c98"></path></g><g transform="translate(552 265)"><path d="M0 -9L9 0L0 9L-9 0Z" fill="#625c98"></path></g><g transform="translate(557 482)"><path d="M0 -4L4 0L0 4L-4 0Z" fill="#625c98"></path></g><g transform="translate(661 595)"><path d="M0 -5L5 0L0 5L-5 0Z" fill="#625c98"></path></g><g transform="translate(87 513)"><path d="M0 -10L10 0L0 10L-10 0Z" fill="#625c98"></path></g><g transform="translate(64 599)"><path d="M0 -9L9 0L0 9L-9 0Z" fill="#625c98"></path></g><g transform="translate(467 169)"><path d="M0 -12L12 0L0 12L-12 0Z" fill="#625c98"></path></g><g transform="translate(312 376)"><path d="M0 -5L5 0L0 5L-5 0Z" fill="#625c98"></path></g><g transform="translate(422 596)"><path d="M0 -3L3 0L0 3L-3 0Z" fill="#625c98"></path></g><g transform="translate(816 371)"><path d="M0 -4L4 0L0 4L-4 0Z" fill="#625c98"></path></g><g transform="translate(78 411)"><path d="M0 -1L1 0L0 1L-1 0Z" fill="#625c98"></path></g><g transform="translate(574 11)"><path d="M0 -11L11 0L0 11L-11 0Z" fill="#625c98"></path></g><g transform="translate(584 312)"><path d="M0 -8L8 0L0 8L-8 0Z" fill="#625c98"></path></g><g transform="translate(839 468)"><path d="M0 -9L9 0L0 9L-9 0Z" fill="#625c98"></path></g><g transform="translate(625 244)"><path d="M0 -3L3 0L0 3L-3 0Z" fill="#625c98"></path></g><g transform="translate(337 306)"><path d="M0 -11L11 0L0 11L-11 0Z" fill="#625c98"></path></g><g transform="translate(713 195)"><path d="M0 -7L7 0L0 7L-7 0Z" fill="#625c98"></path></g><g transform="translate(697 316)"><path d="M0 -2L2 0L0 2L-2 0Z" fill="#625c98"></path></g><g transform="translate(134 558)"><path d="M0 -11L11 0L0 11L-11 0Z" fill="#625c98"></path></g><g transform="translate(187 556)"><path d="M0 -6L6 0L0 6L-6 0Z" fill="#625c98"></path></g><g transform="translate(708 28)"><path d="M0 -10L10 0L0 10L-10 0Z" fill="#625c98"></path></g><g transform="translate(645 347)"><path d="M0 -6L6 0L0 6L-6 0Z" fill="#625c98"></path></g><g transform="translate(642 99)"><path d="M0 -2L2 0L0 2L-2 0Z" fill="#625c98"></path></g><g transform="translate(731 459)"><path d="M0 -10L10 0L0 10L-10 0Z" fill="#625c98"></path></g><g transform="translate(479 558)"><path d="M0 -8L8 0L0 8L-8 0Z" fill="#625c98"></path></g><g transform="translate(511 556)"><path d="M0 -10L10 0L0 10L-10 0Z" fill="#625c98"></path></g><g transform="translate(742 488)"><path d="M0 -5L5 0L0 5L-5 0Z" fill="#625c98"></path></g><g transform="translate(839 353)"><path d="M0 -8L8 0L0 8L-8 0Z" fill="#625c98"></path></g><g transform="translate(49 218)"><path d="M0 -5L5 0L0 5L-5 0Z" fill="#625c98"></path></g><g transform="translate(390 274)"><path d="M0 -11L11 0L0 11L-11 0Z" fill="#625c98"></path></g><g transform="translate(494 188)"><path d="M0 -5L5 0L0 5L-5 0Z" fill="#625c98"></path></g><g transform="translate(772 453)"><path d="M0 -12L12 0L0 12L-12 0Z" fill="#625c98"></path></g><g transform="translate(457 76)"><path d="M0 -6L6 0L0 6L-6 0Z" fill="#625c98"></path></g><g transform="translate(679 277)"><path d="M0 -1L1 0L0 1L-1 0Z" fill="#625c98"></path></g><g transform="translate(58 448)"><path d="M0 -11L11 0L0 11L-11 0Z" fill="#625c98"></path></g><g transform="translate(82 200)"><path d="M0 -7L7 0L0 7L-7 0Z" fill="#625c98"></path></g><g transform="translate(221 288)"><path d="M0 -10L10 0L0 10L-10 0Z" fill="#625c98"></path></g><g transform="translate(543 140)"><path d="M0 -2L2 0L0 2L-2 0Z" fill="#625c98"></path></g><g transform="translate(611 128)"><path d="M0 -7L7 0L0 7L-7 0Z" fill="#625c98"></path></g><g transform="translate(25 474)"><path d="M0 -6L6 0L0 6L-6 0Z" fill="#625c98"></path></g><g transform="translate(16 162)"><path d="M0 -7L7 0L0 7L-7 0Z" fill="#625c98"></path></g><g transform="translate(459 220)"><path d="M0 -2L2 0L0 2L-2 0Z" fill="#625c98"></path></g><g transform="translate(101 463)"><path d="M0 -5L5 0L0 5L-5 0Z" fill="#625c98"></path></g><g transform="translate(286 97)"><path d="M0 -4L4 0L0 4L-4 0Z" fill="#625c98"></path></g><g transform="translate(503 59)"><path d="M0 -5L5 0L0 5L-5 0Z" fill="#625c98"></path></g><g transform="translate(492 109)"><path d="M0 -1L1 0L0 1L-1 0Z" fill="#625c98"></path></g><g transform="translate(128 112)"><path d="M0 -6L6 0L0 6L-6 0Z" fill="#625c98"></path></g><g transform="translate(105 570)"><path d="M0 -4L4 0L0 4L-4 0Z" fill="#625c98"></path></g><g transform="translate(133 181)"><path d="M0 -3L3 0L0 3L-3 0Z" fill="#625c98"></path></g><g transform="translate(366 407)"><path d="M0 -5L5 0L0 5L-5 0Z" fill="#625c98"></path></g><g transform="translate(398 333)"><path d="M0 -8L8 0L0 8L-8 0Z" fill="#625c98"></path></g><g transform="translate(272 452)"><path d="M0 -6L6 0L0 6L-6 0Z" fill="#625c98"></path></g><g transform="translate(755 80)"><path d="M0 -3L3 0L0 3L-3 0Z" fill="#625c98"></path></g><g transform="translate(806 100)"><path d="M0 -10L10 0L0 10L-10 0Z" fill="#625c98"></path></g><g transform="translate(312 135)"><path d="M0 -6L6 0L0 6L-6 0Z" fill="#625c98"></path></g><g transform="translate(583 264)"><path d="M0 -5L5 0L0 5L-5 0Z" fill="#625c98"></path></g><g transform="translate(446 142)"><path d="M0 -8L8 0L0 8L-8 0Z" fill="#625c98"></path></g><g transform="translate(172 187)"><path d="M0 -11L11 0L0 11L-11 0Z" fill="#625c98"></path></g><g transform="translate(531 308)"><path d="M0 -10L10 0L0 10L-10 0Z" fill="#625c98"></path></g><g transform="translate(572 366)"><path d="M0 -9L9 0L0 9L-9 0Z" fill="#625c98"></path></g><g transform="translate(756 165)"><path d="M0 -4L4 0L0 4L-4 0Z" fill="#625c98"></path></g><g transform="translate(56 543)"><path d="M0 -11L11 0L0 11L-11 0Z" fill="#625c98"></path></g><g transform="translate(93 237)"><path d="M0 -6L6 0L0 6L-6 0Z" fill="#625c98"></path></g><g transform="translate(648 203)"><path d="M0 -3L3 0L0 3L-3 0Z" fill="#625c98"></path></g><g transform="translate(278 127)"><path d="M0 -7L7 0L0 7L-7 0Z" fill="#625c98"></path></g><g transform="translate(824 16)"><path d="M0 -10L10 0L0 10L-10 0Z" fill="#625c98"></path></g><g transform="translate(877 428)"><path d="M0 -5L5 0L0 5L-5 0Z" fill="#625c98"></path></g><g transform="translate(672 5)"><path d="M0 -5L5 0L0 5L-5 0Z" fill="#625c98"></path></g><g transform="translate(373 359)"><path d="M0 -5L5 0L0 5L-5 0Z" fill="#625c98"></path></g><g transform="translate(319 516)"><path d="M0 -5L5 0L0 5L-5 0Z" fill="#625c98"></path></g><g transform="translate(281 173)"><path d="M0 -4L4 0L0 4L-4 0Z" fill="#625c98"></path></g><g transform="translate(66 27)"><path d="M0 -2L2 0L0 2L-2 0Z" fill="#625c98"></path></g><g transform="translate(681 450)"><path d="M0 -10L10 0L0 10L-10 0Z" fill="#625c98"></path></g><g transform="translate(116 416)"><path d="M0 -9L9 0L0 9L-9 0Z" fill="#625c98"></path></g><g transform="translate(813 126)"><path d="M0 -3L3 0L0 3L-3 0Z" fill="#625c98"></path></g><g transform="translate(666 310)"><path d="M0 -11L11 0L0 11L-11 0Z" fill="#625c98"></path></g><g transform="translate(218 197)"><path d="M0 -6L6 0L0 6L-6 0Z" fill="#625c98"></path></g><g transform="translate(785 591)"><path d="M0 -8L8 0L0 8L-8 0Z" fill="#625c98"></path></g><g transform="translate(742 581)"><path d="M0 -7L7 0L0 7L-7 0Z" fill="#625c98"></path></g><g transform="translate(127 1)"><path d="M0 -6L6 0L0 6L-6 0Z" fill="#625c98"></path></g><g transform="translate(770 267)"><path d="M0 -3L3 0L0 3L-3 0Z" fill="#625c98"></path></g><g transform="translate(122 220)"><path d="M0 -3L3 0L0 3L-3 0Z" fill="#625c98"></path></g><g transform="translate(131 66)"><path d="M0 -11L11 0L0 11L-11 0Z" fill="#625c98"></path></g><g transform="translate(136 293)"><path d="M0 -4L4 0L0 4L-4 0Z" fill="#625c98"></path></g><g transform="translate(657 424)"><path d="M0 -8L8 0L0 8L-8 0Z" fill="#625c98"></path></g><g transform="translate(223 510)"><path d="M0 -11L11 0L0 11L-11 0Z" fill="#625c98"></path></g><g transform="translate(551 112)"><path d="M0 -4L4 0L0 4L-4 0Z" fill="#625c98"></path></g><g transform="translate(159 449)"><path d="M0 -3L3 0L0 3L-3 0Z" fill="#625c98"></path></g><g transform="translate(236 131)"><path d="M0 -12L12 0L0 12L-12 0Z" fill="#625c98"></path></g><g transform="translate(609 533)"><path d="M0 -3L3 0L0 3L-3 0Z" fill="#625c98"></path></g><g transform="translate(264 593)"><path d="M0 -3L3 0L0 3L-3 0Z" fill="#625c98"></path></g><g transform="translate(663 137)"><path d="M0 -2L2 0L0 2L-2 0Z" fill="#625c98"></path></g><g transform="translate(813 56)"><path d="M0 -12L12 0L0 12L-12 0Z" fill="#625c98"></path></g><g transform="translate(833 167)"><path d="M0 -1L1 0L0 1L-1 0Z" fill="#625c98"></path></g><g transform="translate(450 463)"><path d="M0 -11L11 0L0 11L-11 0Z" fill="#625c98"></path></g><g transform="translate(449 573)"><path d="M0 -5L5 0L0 5L-5 0Z" fill="#625c98"></path></g><g transform="translate(570 579)"><path d="M0 -5L5 0L0 5L-5 0Z" fill="#625c98"></path></g><g transform="translate(845 528)"><path d="M0 -1L1 0L0 1L-1 0Z" fill="#625c98"></path></g><g transform="translate(520 453)"><path d="M0 -8L8 0L0 8L-8 0Z" fill="#625c98"></path></g><g transform="translate(586 449)"><path d="M0 -3L3 0L0 3L-3 0Z" fill="#625c98"></path></g><g transform="translate(188 161)"><path d="M0 -5L5 0L0 5L-5 0Z" fill="#625c98"></path></g><g transform="translate(8 197)"><path d="M0 -2L2 0L0 2L-2 0Z" fill="#625c98"></path></g><g transform="translate(533 19)"><path d="M0 -9L9 0L0 9L-9 0Z" fill="#625c98"></path></g><g transform="translate(148 38)"><path d="M0 -6L6 0L0 6L-6 0Z" fill="#625c98"></path></g><g transform="translate(895 2)"><path d="M0 -11L11 0L0 11L-11 0Z" fill="#625c98"></path></g><g transform="translate(67 488)"><path d="M0 -10L10 0L0 10L-10 0Z" fill="#625c98"></path></g><g transform="translate(82 277)"><path d="M0 -9L9 0L0 9L-9 0Z" fill="#625c98"></path></g><g transform="translate(300 581)"><path d="M0 -9L9 0L0 9L-9 0Z" fill="#625c98"></path></g><g transform="translate(602 424)"><path d="M0 -8L8 0L0 8L-8 0Z" fill="#625c98"></path></g><g transform="translate(680 61)"><path d="M0 -6L6 0L0 6L-6 0Z" fill="#625c98"></path></g><g transform="translate(876 122)"><path d="M0 -8L8 0L0 8L-8 0Z" fill="#625c98"></path></g><g transform="translate(87 113)"><path d="M0 -7L7 0L0 7L-7 0Z" fill="#625c98"></path></g><g transform="translate(734 546)"><path d="M0 -4L4 0L0 4L-4 0Z" fill="#625c98"></path></g><g transform="translate(899 324)"><path d="M0 -5L5 0L0 5L-5 0Z" fill="#625c98"></path></g><g transform="translate(357 62)"><path d="M0 -3L3 0L0 3L-3 0Z" fill="#625c98"></path></g><g transform="translate(157 160)"><path d="M0 -4L4 0L0 4L-4 0Z" fill="#625c98"></path></g><g transform="translate(815 236)"><path d="M0 -6L6 0L0 6L-6 0Z" fill="#625c98"></path></g><g transform="translate(898 376)"><path d="M0 -1L1 0L0 1L-1 0Z" fill="#625c98"></path></g><g transform="translate(696 539)"><path d="M0 -8L8 0L0 8L-8 0Z" fill="#625c98"></path></g><g transform="translate(677 405)"><path d="M0 -2L2 0L0 2L-2 0Z" fill="#625c98"></path></g><g transform="translate(190 402)"><path d="M0 -10L10 0L0 10L-10 0Z" fill="#625c98"></path></g><g transform="translate(818 425)"><path d="M0 -4L4 0L0 4L-4 0Z" fill="#625c98"></path></g><g transform="translate(438 394)"><path d="M0 -7L7 0L0 7L-7 0Z" fill="#625c98"></path></g><g transform="translate(721 298)"><path d="M0 -12L12 0L0 12L-12 0Z" fill="#625c98"></path></g><g transform="translate(27 521)"><path d="M0 -6L6 0L0 6L-6 0Z" fill="#625c98"></path></g><g transform="translate(239 164)"><path d="M0 -2L2 0L0 2L-2 0Z" fill="#625c98"></path></g><g transform="translate(609 466)"><path d="M0 -1L1 0L0 1L-1 0Z" fill="#625c98"></path></g><g transform="translate(557 409)"><path d="M0 -5L5 0L0 5L-5 0Z" fill="#625c98"></path></g><g transform="translate(494 372)"><path d="M0 -4L4 0L0 4L-4 0Z" fill="#625c98"></path></g><g transform="translate(219 375)"><path d="M0 -8L8 0L0 8L-8 0Z" fill="#625c98"></path></g><g transform="translate(192 589)"><path d="M0 -11L11 0L0 11L-11 0Z" fill="#625c98"></path></g><g transform="translate(488 590)"><path d="M0 -7L7 0L0 7L-7 0Z" fill="#625c98"></path></g><g transform="translate(761 560)"><path d="M0 -11L11 0L0 11L-11 0Z" fill="#625c98"></path></g><g transform="translate(269 4)"><path d="M0 -9L9 0L0 9L-9 0Z" fill="#625c98"></path></g><g transform="translate(302 223)"><path d="M0 -7L7 0L0 7L-7 0Z" fill="#625c98"></path></g><g transform="translate(435 42)"><path d="M0 -4L4 0L0 4L-4 0Z" fill="#625c98"></path></g><g transform="translate(278 510)"><path d="M0 -10L10 0L0 10L-10 0Z" fill="#625c98"></path></g><g transform="translate(159 261)"><path d="M0 -11L11 0L0 11L-11 0Z" fill="#625c98"></path></g><g transform="translate(796 22)"><path d="M0 -9L9 0L0 9L-9 0Z" fill="#625c98"></path></g><g transform="translate(452 497)"><path d="M0 -11L11 0L0 11L-11 0Z" fill="#625c98"></path></g><g transform="translate(252 287)"><path d="M0 -5L5 0L0 5L-5 0Z" fill="#625c98"></path></g><g transform="translate(796 161)"><path d="M0 -12L12 0L0 12L-12 0Z" fill="#625c98"></path></g><g transform="translate(104 377)"><path d="M0 -9L9 0L0 9L-9 0Z" fill="#625c98"></path></g><g transform="translate(292 56)"><path d="M0 -3L3 0L0 3L-3 0Z" fill="#625c98"></path></g><g transform="translate(621 82)"><path d="M0 -3L3 0L0 3L-3 0Z" fill="#625c98"></path></g><g transform="translate(321 201)"><path d="M0 -1L1 0L0 1L-1 0Z" fill="#625c98"></path></g><g transform="translate(471 7)"><path d="M0 -10L10 0L0 10L-10 0Z" fill="#625c98"></path></g><g transform="translate(197 497)"><path d="M0 -12L12 0L0 12L-12 0Z" fill="#625c98"></path></g><g transform="translate(469 432)"><path d="M0 -6L6 0L0 6L-6 0Z" fill="#625c98"></path></g><g transform="translate(402 477)"><path d="M0 -4L4 0L0 4L-4 0Z" fill="#625c98"></path></g><g transform="translate(473 48)"><path d="M0 -10L10 0L0 10L-10 0Z" fill="#625c98"></path></g><g transform="translate(364 144)"><path d="M0 -6L6 0L0 6L-6 0Z" fill="#625c98"></path></g><g transform="translate(102 153)"><path d="M0 -9L9 0L0 9L-9 0Z" fill="#625c98"></path></g><g transform="translate(356 496)"><path d="M0 -8L8 0L0 8L-8 0Z" fill="#625c98"></path></g><g transform="translate(48 169)"><path d="M0 -3L3 0L0 3L-3 0Z" fill="#625c98"></path></g><g transform="translate(779 356)"><path d="M0 -11L11 0L0 11L-11 0Z" fill="#625c98"></path></g><g transform="translate(365 538)"><path d="M0 -10L10 0L0 10L-10 0Z" fill="#625c98"></path></g><g transform="translate(519 383)"><path d="M0 -8L8 0L0 8L-8 0Z" fill="#625c98"></path></g><g transform="translate(483 319)"><path d="M0 -1L1 0L0 1L-1 0Z" fill="#625c98"></path></g><g transform="translate(245 572)"><path d="M0 -12L12 0L0 12L-12 0Z" fill="#625c98"></path></g><g transform="translate(762 5)"><path d="M0 -10L10 0L0 10L-10 0Z" fill="#625c98"></path></g><g transform="translate(579 503)"><path d="M0 -4L4 0L0 4L-4 0Z" fill="#625c98"></path></g><g transform="translate(816 321)"><path d="M0 -8L8 0L0 8L-8 0Z" fill="#625c98"></path></g><g transform="translate(409 509)"><path d="M0 -3L3 0L0 3L-3 0Z" fill="#625c98"></path></g><g transform="translate(132 497)"><path d="M0 -3L3 0L0 3L-3 0Z" fill="#625c98"></path></g><g transform="translate(354 251)"><path d="M0 -3L3 0L0 3L-3 0Z" fill="#625c98"></path></g><g transform="translate(408 31)"><path d="M0 -1L1 0L0 1L-1 0Z" fill="#625c98"></path></g><g transform="translate(423 537)"><path d="M0 -9L9 0L0 9L-9 0Z" fill="#625c98"></path></g><g transform="translate(837 396)"><path d="M0 -5L5 0L0 5L-5 0Z" fill="#625c98"></path></g><g transform="translate(656 30)"><path d="M0 -11L11 0L0 11L-11 0Z" fill="#625c98"></path></g><g transform="translate(331 354)"><path d="M0 -6L6 0L0 6L-6 0Z" fill="#625c98"></path></g><g transform="translate(301 258)"><path d="M0 -11L11 0L0 11L-11 0Z" fill="#625c98"></path></g><g transform="translate(299 465)"><path d="M0 -6L6 0L0 6L-6 0Z" fill="#625c98"></path></g><g transform="translate(85 318)"><path d="M0 -3L3 0L0 3L-3 0Z" fill="#625c98"></path></g><g transform="translate(168 379)"><path d="M0 -5L5 0L0 5L-5 0Z" fill="#625c98"></path></g><g transform="translate(124 443)"><path d="M0 -7L7 0L0 7L-7 0Z" fill="#625c98"></path></g><g transform="translate(880 181)"><path d="M0 -11L11 0L0 11L-11 0Z" fill="#625c98"></path></g><g transform="translate(563 237)"><path d="M0 -2L2 0L0 2L-2 0Z" fill="#625c98"></path></g><g transform="translate(886 40)"><path d="M0 -1L1 0L0 1L-1 0Z" fill="#625c98"></path></g><g transform="translate(680 105)"><path d="M0 -5L5 0L0 5L-5 0Z" fill="#625c98"></path></g><g transform="translate(654 73)"><path d="M0 -6L6 0L0 6L-6 0Z" fill="#625c98"></path></g><g transform="translate(566 292)"><path d="M0 -5L5 0L0 5L-5 0Z" fill="#625c98"></path></g><g transform="translate(211 259)"><path d="M0 -7L7 0L0 7L-7 0Z" fill="#625c98"></path></g><g transform="translate(320 35)"><path d="M0 -11L11 0L0 11L-11 0Z" fill="#625c98"></path></g><g transform="translate(390 80)"><path d="M0 -7L7 0L0 7L-7 0Z" fill="#625c98"></path></g><g transform="translate(266 257)"><path d="M0 -5L5 0L0 5L-5 0Z" fill="#625c98"></path></g><g transform="translate(496 157)"><path d="M0 -7L7 0L0 7L-7 0Z" fill="#625c98"></path></g><g transform="translate(258 545)"><path d="M0 -5L5 0L0 5L-5 0Z" fill="#625c98"></path></g><g transform="translate(892 589)"><path d="M0 -5L5 0L0 5L-5 0Z" fill="#625c98"></path></g><g transform="translate(489 266)"><path d="M0 -9L9 0L0 9L-9 0Z" fill="#625c98"></path></g><g transform="translate(211 433)"><path d="M0 -4L4 0L0 4L-4 0Z" fill="#625c98"></path></g><g transform="translate(18 555)"><path d="M0 -3L3 0L0 3L-3 0Z" fill="#625c98"></path></g><g transform="translate(414 366)"><path d="M0 -2L2 0L0 2L-2 0Z" fill="#625c98"></path></g><g transform="translate(246 399)"><path d="M0 -12L12 0L0 12L-12 0Z" fill="#625c98"></path></g><g transform="translate(278 323)"><path d="M0 -12L12 0L0 12L-12 0Z" fill="#625c98"></path></g><g transform="translate(496 403)"><path d="M0 -4L4 0L0 4L-4 0Z" fill="#625c98"></path></g><g transform="translate(418 119)"><path d="M0 -6L6 0L0 6L-6 0Z" fill="#625c98"></path></g><g transform="translate(404 390)"><path d="M0 -2L2 0L0 2L-2 0Z" fill="#625c98"></path></g><g transform="translate(788 237)"><path d="M0 -3L3 0L0 3L-3 0Z" fill="#625c98"></path></g><g transform="translate(532 175)"><path d="M0 -3L3 0L0 3L-3 0Z" fill="#625c98"></path></g><g transform="translate(13 12)"><path d="M0 -1L1 0L0 1L-1 0Z" fill="#625c98"></path></g><g transform="translate(865 375)"><path d="M0 -9L9 0L0 9L-9 0Z" fill="#625c98"></path></g><g transform="translate(186 358)"><path d="M0 -4L4 0L0 4L-4 0Z" fill="#625c98"></path></g><g transform="translate(101 22)"><path d="M0 -6L6 0L0 6L-6 0Z" fill="#625c98"></path></g><g transform="translate(771 104)"><path d="M0 -10L10 0L0 10L-10 0Z" fill="#625c98"></path></g><g transform="translate(544 560)"><path d="M0 -1L1 0L0 1L-1 0Z" fill="#625c98"></path></g><g transform="translate(57 331)"><path d="M0 -1L1 0L0 1L-1 0Z" fill="#625c98"></path></g><g transform="translate(531 218)"><path d="M0 -8L8 0L0 8L-8 0Z" fill="#625c98"></path></g><g transform="translate(212 346)"><path d="M0 -5L5 0L0 5L-5 0Z" fill="#625c98"></path></g><g transform="translate(382 512)"><path d="M0 -9L9 0L0 9L-9 0Z" fill="#625c98"></path></g><g transform="translate(248 432)"><path d="M0 -7L7 0L0 7L-7 0Z" fill="#625c98"></path></g><g transform="translate(765 296)"><path d="M0 -3L3 0L0 3L-3 0Z" fill="#625c98"></path></g><g transform="translate(781 319)"><path d="M0 -11L11 0L0 11L-11 0Z" fill="#625c98"></path></g><g transform="translate(35 583)"><path d="M0 -6L6 0L0 6L-6 0Z" fill="#625c98"></path></g><g transform="translate(243 102)"><path d="M0 -11L11 0L0 11L-11 0Z" fill="#625c98"></path></g><g transform="translate(815 524)"><path d="M0 -3L3 0L0 3L-3 0Z" fill="#625c98"></path></g><g transform="translate(608 288)"><path d="M0 -1L1 0L0 1L-1 0Z" fill="#625c98"></path></g><g transform="translate(61 251)"><path d="M0 -11L11 0L0 11L-11 0Z" fill="#625c98"></path></g><g transform="translate(880 461)"><path d="M0 -6L6 0L0 6L-6 0Z" fill="#625c98"></path></g><g transform="translate(638 5)"><path d="M0 -9L9 0L0 9L-9 0Z" fill="#625c98"></path></g><g transform="translate(577 338)"><path d="M0 -3L3 0L0 3L-3 0Z" fill="#625c98"></path></g><g transform="translate(220 461)"><path d="M0 -7L7 0L0 7L-7 0Z" fill="#625c98"></path></g><g transform="translate(689 503)"><path d="M0 -3L3 0L0 3L-3 0Z" fill="#625c98"></path></g><g transform="translate(246 331)"><path d="M0 -2L2 0L0 2L-2 0Z" fill="#625c98"></path></g><g transform="translate(534 91)"><path d="M0 -10L10 0L0 10L-10 0Z" fill="#625c98"></path></g><g transform="translate(349 329)"><path d="M0 -7L7 0L0 7L-7 0Z" fill="#625c98"></path></g><g transform="translate(253 189)"><path d="M0 -12L12 0L0 12L-12 0Z" fill="#625c98"></path></g><g transform="translate(280 394)"><path d="M0 -5L5 0L0 5L-5 0Z" fill="#625c98"></path></g><g transform="translate(864 284)"><path d="M0 -4L4 0L0 4L-4 0Z" fill="#625c98"></path></g><g transform="translate(615 498)"><path d="M0 -3L3 0L0 3L-3 0Z" fill="#625c98"></path></g><g transform="translate(9 241)"><path d="M0 -12L12 0L0 12L-12 0Z" fill="#625c98"></path></g><g transform="translate(602 5)"><path d="M0 -1L1 0L0 1L-1 0Z" fill="#625c98"></path></g><g transform="translate(232 48)"><path d="M0 -8L8 0L0 8L-8 0Z" fill="#625c98"></path></g><g transform="translate(478 133)"><path d="M0 -10L10 0L0 10L-10 0Z" fill="#625c98"></path></g><g transform="translate(639 483)"><path d="M0 -1L1 0L0 1L-1 0Z" fill="#625c98"></path></g><g transform="translate(173 483)"><path d="M0 -10L10 0L0 10L-10 0Z" fill="#625c98"></path></g><g transform="translate(499 9)"><path d="M0 -4L4 0L0 4L-4 0Z" fill="#625c98"></path></g><g transform="translate(733 515)"><path d="M0 -10L10 0L0 10L-10 0Z" fill="#625c98"></path></g><g transform="translate(728 262)"><path d="M0 -11L11 0L0 11L-11 0Z" fill="#625c98"></path></g><g transform="translate(444 4)"><path d="M0 -8L8 0L0 8L-8 0Z" fill="#625c98"></path></g><g transform="translate(374 171)"><path d="M0 -6L6 0L0 6L-6 0Z" fill="#625c98"></path></g><g transform="translate(548 595)"><path d="M0 -7L7 0L0 7L-7 0Z" fill="#625c98"></path></g><g transform="translate(371 565)"><path d="M0 -1L1 0L0 1L-1 0Z" fill="#625c98"></path></g><g transform="translate(380 116)"><path d="M0 -6L6 0L0 6L-6 0Z" fill="#625c98"></path></g><g transform="translate(100 62)"><path d="M0 -9L9 0L0 9L-9 0Z" fill="#625c98"></path></g><g transform="translate(460 367)"><path d="M0 -7L7 0L0 7L-7 0Z" fill="#625c98"></path></g><g transform="translate(847 563)"><path d="M0 -12L12 0L0 12L-12 0Z" fill="#625c98"></path></g><g transform="translate(576 75)"><path d="M0 -5L5 0L0 5L-5 0Z" fill="#625c98"></path></g><g transform="translate(841 80)"><path d="M0 -10L10 0L0 10L-10 0Z" fill="#625c98"></path></g><g transform="translate(574 167)"><path d="M0 -1L1 0L0 1L-1 0Z" fill="#625c98"></path></g><g transform="translate(716 361)"><path d="M0 -12L12 0L0 12L-12 0Z" fill="#625c98"></path></g><g transform="translate(266 40)"><path d="M0 -10L10 0L0 10L-10 0Z" fill="#625c98"></path></g><g transform="translate(844 318)"><path d="M0 -9L9 0L0 9L-9 0Z" fill="#625c98"></path></g><g transform="translate(668 170)"><path d="M0 -3L3 0L0 3L-3 0Z" fill="#625c98"></path></g><g transform="translate(104 538)"><path d="M0 -7L7 0L0 7L-7 0Z" fill="#625c98"></path></g><g transform="translate(703 83)"><path d="M0 -7L7 0L0 7L-7 0Z" fill="#625c98"></path></g><g transform="translate(114 312)"><path d="M0 -11L11 0L0 11L-11 0Z" fill="#625c98"></path></g><g transform="translate(172 219)"><path d="M0 -12L12 0L0 12L-12 0Z" fill="#625c98"></path></g><g transform="translate(451 103)"><path d="M0 -10L10 0L0 10L-10 0Z" fill="#625c98"></path></g><g transform="translate(632 146)"><path d="M0 -12L12 0L0 12L-12 0Z" fill="#625c98"></path></g><g transform="translate(751 323)"><path d="M0 -3L3 0L0 3L-3 0Z" fill="#625c98"></path></g><g transform="translate(219 565)"><path d="M0 -8L8 0L0 8L-8 0Z" fill="#625c98"></path></g><g transform="translate(728 96)"><path d="M0 -10L10 0L0 10L-10 0Z" fill="#625c98"></path></g><g transform="translate(777 211)"><path d="M0 -6L6 0L0 6L-6 0Z" fill="#625c98"></path></g><g transform="translate(596 31)"><path d="M0 -7L7 0L0 7L-7 0Z" fill="#625c98"></path></g><g transform="translate(31 315)"><path d="M0 -2L2 0L0 2L-2 0Z" fill="#625c98"></path></g><g transform="translate(891 287)"><path d="M0 -9L9 0L0 9L-9 0Z" fill="#625c98"></path></g><g transform="translate(865 211)"><path d="M0 -7L7 0L0 7L-7 0Z" fill="#625c98"></path></g><g transform="translate(340 400)"><path d="M0 -2L2 0L0 2L-2 0Z" fill="#625c98"></path></g><g transform="translate(873 502)"><path d="M0 -9L9 0L0 9L-9 0Z" fill="#625c98"></path></g><g transform="translate(618 178)"><path d="M0 -8L8 0L0 8L-8 0Z" fill="#625c98"></path></g><g transform="translate(805 288)"><path d="M0 -7L7 0L0 7L-7 0Z" fill="#625c98"></path></g><g transform="translate(454 527)"><path d="M0 -3L3 0L0 3L-3 0Z" fill="#625c98"></path></g><g transform="translate(401 144)"><path d="M0 -12L12 0L0 12L-12 0Z" fill="#625c98"></path></g><g transform="translate(742 385)"><path d="M0 -6L6 0L0 6L-6 0Z" fill="#625c98"></path></g><g transform="translate(64 144)"><path d="M0 -12L12 0L0 12L-12 0Z" fill="#625c98"></path></g><g transform="translate(843 228)"><path d="M0 -7L7 0L0 7L-7 0Z" fill="#625c98"></path></g><g transform="translate(161 562)"><path d="M0 -10L10 0L0 10L-10 0Z" fill="#625c98"></path></g><g transform="translate(374 303)"><path d="M0 -2L2 0L0 2L-2 0Z" fill="#625c98"></path></g><g transform="translate(163 514)"><path d="M0 -4L4 0L0 4L-4 0Z" fill="#625c98"></path></g><g transform="translate(657 565)"><path d="M0 -4L4 0L0 4L-4 0Z" fill="#625c98"></path></g><g transform="translate(309 3)"><path d="M0 -2L2 0L0 2L-2 0Z" fill="#625c98"></path></g><g transform="translate(679 219)"><path d="M0 -7L7 0L0 7L-7 0Z" fill="#625c98"></path></g><g transform="translate(508 243)"><path d="M0 -10L10 0L0 10L-10 0Z" fill="#625c98"></path></g><g transform="translate(773 487)"><path d="M0 -11L11 0L0 11L-11 0Z" fill="#625c98"></path></g><g transform="translate(132 342)"><path d="M0 -4L4 0L0 4L-4 0Z" fill="#625c98"></path></g><g transform="translate(320 489)"><path d="M0 -9L9 0L0 9L-9 0Z" fill="#625c98"></path></g><g transform="translate(663 496)"><path d="M0 -12L12 0L0 12L-12 0Z" fill="#625c98"></path></g><g transform="translate(494 534)"><path d="M0 -12L12 0L0 12L-12 0Z" fill="#625c98"></path></g><g transform="translate(774 417)"><path d="M0 -6L6 0L0 6L-6 0Z" fill="#625c98"></path></g><g transform="translate(15 440)"><path d="M0 -7L7 0L0 7L-7 0Z" fill="#625c98"></path></g><g transform="translate(415 445)"><path d="M0 -6L6 0L0 6L-6 0Z" fill="#625c98"></path></g><g transform="translate(289 353)"><path d="M0 -1L1 0L0 1L-1 0Z" fill="#625c98"></path></g><g transform="translate(363 455)"><path d="M0 -8L8 0L0 8L-8 0Z" fill="#625c98"></path></g><g transform="translate(440 307)"><path d="M0 -4L4 0L0 4L-4 0Z" fill="#625c98"></path></g><g transform="translate(506 503)"><path d="M0 -6L6 0L0 6L-6 0Z" fill="#625c98"></path></g><g transform="translate(423 75)"><path d="M0 -6L6 0L0 6L-6 0Z" fill="#625c98"></path></g><g transform="translate(181 434)"><path d="M0 -8L8 0L0 8L-8 0Z" fill="#625c98"></path></g><g transform="translate(849 55)"><path d="M0 -2L2 0L0 2L-2 0Z" fill="#625c98"></path></g><g transform="translate(880 552)"><path d="M0 -10L10 0L0 10L-10 0Z" fill="#625c98"></path></g><g transform="translate(561 193)"><path d="M0 -12L12 0L0 12L-12 0Z" fill="#625c98"></path></g><g transform="translate(429 178)"><path d="M0 -12L12 0L0 12L-12 0Z" fill="#625c98"></path></g><g transform="translate(337 122)"><path d="M0 -1L1 0L0 1L-1 0Z" fill="#625c98"></path></g><g transform="translate(852 24)"><path d="M0 -7L7 0L0 7L-7 0Z" fill="#625c98"></path></g><g transform="translate(165 6)"><path d="M0 -10L10 0L0 10L-10 0Z" fill="#625c98"></path></g><g transform="translate(308 299)"><path d="M0 -4L4 0L0 4L-4 0Z" fill="#625c98"></path></g><g transform="translate(37 32)"><path d="M0 -6L6 0L0 6L-6 0Z" fill="#625c98"></path></g><g transform="translate(73 565)"><path d="M0 -2L2 0L0 2L-2 0Z" fill="#625c98"></path></g><g transform="translate(6 587)"><path d="M0 -8L8 0L0 8L-8 0Z" fill="#625c98"></path></g><g transform="translate(2 85)"><path d="M0 -2L2 0L0 2L-2 0Z" fill="#625c98"></path></g><g transform="translate(327 256)"><path d="M0 -8L8 0L0 8L-8 0Z" fill="#625c98"></path></g><g transform="translate(700 595)"><path d="M0 -7L7 0L0 7L-7 0Z" fill="#625c98"></path></g><g transform="translate(739 19)"><path d="M0 -5L5 0L0 5L-5 0Z" fill="#625c98"></path></g><g transform="translate(48 4)"><path d="M0 -3L3 0L0 3L-3 0Z" fill="#625c98"></path></g><g transform="translate(188 46)"><path d="M0 -2L2 0L0 2L-2 0Z" fill="#625c98"></path></g><g transform="translate(628 317)"><path d="M0 -9L9 0L0 9L-9 0Z" fill="#625c98"></path></g><g transform="translate(42 401)"><path d="M0 -5L5 0L0 5L-5 0Z" fill="#625c98"></path></g><g transform="translate(507 344)"><path d="M0 -1L1 0L0 1L-1 0Z" fill="#625c98"></path></g><g transform="translate(75 356)"><path d="M0 -10L10 0L0 10L-10 0Z" fill="#625c98"></path></g><g transform="translate(157 406)"><path d="M0 -12L12 0L0 12L-12 0Z" fill="#625c98"></path></g><g transform="translate(435 233)"><path d="M0 -8L8 0L0 8L-8 0Z" fill="#625c98"></path></g><g transform="translate(868 337)"><path d="M0 -9L9 0L0 9L-9 0Z" fill="#625c98"></path></g><g transform="translate(758 44)"><path d="M0 -7L7 0L0 7L-7 0Z" fill="#625c98"></path></g><g transform="translate(518 118)"><path d="M0 -2L2 0L0 2L-2 0Z" fill="#625c98"></path></g><g transform="translate(395 6)"><path d="M0 -11L11 0L0 11L-11 0Z" fill="#625c98"></path></g><g transform="translate(49 284)"><path d="M0 -9L9 0L0 9L-9 0Z" fill="#625c98"></path></g><g transform="translate(784 73)"><path d="M0 -4L4 0L0 4L-4 0Z" fill="#625c98"></path></g><g transform="translate(599 358)"><path d="M0 -12L12 0L0 12L-12 0Z" fill="#625c98"></path></g><g transform="translate(401 556)"><path d="M0 -8L8 0L0 8L-8 0Z" fill="#625c98"></path></g><g transform="translate(355 278)"><path d="M0 -12L12 0L0 12L-12 0Z" fill="#625c98"></path></g><g transform="translate(800 545)"><path d="M0 -6L6 0L0 6L-6 0Z" fill="#625c98"></path></g><g transform="translate(10 283)"><path d="M0 -11L11 0L0 11L-11 0Z" fill="#625c98"></path></g><g transform="translate(627 559)"><path d="M0 -7L7 0L0 7L-7 0Z" fill="#625c98"></path></g><g transform="translate(315 326)"><path d="M0 -12L12 0L0 12L-12 0Z" fill="#625c98"></path></g><g transform="translate(188 246)"><path d="M0 -4L4 0L0 4L-4 0Z" fill="#625c98"></path></g><g transform="translate(851 444)"><path d="M0 -2L2 0L0 2L-2 0Z" fill="#625c98"></path></g><g transform="translate(707 473)"><path d="M0 -6L6 0L0 6L-6 0Z" fill="#625c98"></path></g><g transform="translate(580 543)"><path d="M0 -6L6 0L0 6L-6 0Z" fill="#625c98"></path></g><g transform="translate(38 136)"><path d="M0 -10L10 0L0 10L-10 0Z" fill="#625c98"></path></g><g transform="translate(2 499)"><path d="M0 -3L3 0L0 3L-3 0Z" fill="#625c98"></path></g><g transform="translate(845 496)"><path d="M0 -11L11 0L0 11L-11 0Z" fill="#625c98"></path></g><g transform="translate(122 592)"><path d="M0 -9L9 0L0 9L-9 0Z" fill="#625c98"></path></g><g transform="translate(336 149)"><path d="M0 -1L1 0L0 1L-1 0Z" fill="#625c98"></path></g><g transform="translate(166 596)"><path d="M0 -10L10 0L0 10L-10 0Z" fill="#625c98"></path></g><g transform="translate(847 595)"><path d="M0 -11L11 0L0 11L-11 0Z" fill="#625c98"></path></g><g transform="translate(206 128)"><path d="M0 -5L5 0L0 5L-5 0Z" fill="#625c98"></path></g><g transform="translate(371 592)"><path d="M0 -4L4 0L0 4L-4 0Z" fill="#625c98"></path></g><g transform="translate(275 214)"><path d="M0 -9L9 0L0 9L-9 0Z" fill="#625c98"></path></g><g transform="translate(634 598)"><path d="M0 -5L5 0L0 5L-5 0Z" fill="#625c98"></path></g><g transform="translate(199 528)"><path d="M0 -8L8 0L0 8L-8 0Z" fill="#625c98"></path></g><g transform="translate(80 172)"><path d="M0 -9L9 0L0 9L-9 0Z" fill="#625c98"></path></g><g transform="translate(594 100)"><path d="M0 -1L1 0L0 1L-1 0Z" fill="#625c98"></path></g><g transform="translate(362 88)"><path d="M0 -1L1 0L0 1L-1 0Z" fill="#625c98"></path></g><g transform="translate(896 153)"><path d="M0 -9L9 0L0 9L-9 0Z" fill="#625c98"></path></g><g transform="translate(5 356)"><path d="M0 -7L7 0L0 7L-7 0Z" fill="#625c98"></path></g><g transform="translate(539 63)"><path d="M0 -12L12 0L0 12L-12 0Z" fill="#625c98"></path></g><g transform="translate(786 126)"><path d="M0 -7L7 0L0 7L-7 0Z" fill="#625c98"></path></g><g transform="translate(59 61)"><path d="M0 -1L1 0L0 1L-1 0Z" fill="#625c98"></path></g><g transform="translate(207 225)"><path d="M0 -9L9 0L0 9L-9 0Z" fill="#625c98"></path></g><g transform="translate(227 539)"><path d="M0 -1L1 0L0 1L-1 0Z" fill="#625c98"></path></g><g transform="translate(557 317)"><path d="M0 -11L11 0L0 11L-11 0Z" fill="#625c98"></path></g><g transform="translate(402 302)"><path d="M0 -5L5 0L0 5L-5 0Z" fill="#625c98"></path></g><g transform="translate(314 107)"><path d="M0 -3L3 0L0 3L-3 0Z" fill="#625c98"></path></g><g transform="translate(41 497)"><path d="M0 -2L2 0L0 2L-2 0Z" fill="#625c98"></path></g><g transform="translate(811 451)"><path d="M0 -4L4 0L0 4L-4 0Z" fill="#625c98"></path></g><g transform="translate(806 399)"><path d="M0 -4L4 0L0 4L-4 0Z" fill="#625c98"></path></g><g transform="translate(59 517)"><path d="M0 -11L11 0L0 11L-11 0Z" fill="#625c98"></path></g><g transform="translate(898 480)"><path d="M0 -11L11 0L0 11L-11 0Z" fill="#625c98"></path></g><g transform="translate(228 79)"><path d="M0 -3L3 0L0 3L-3 0Z" fill="#625c98"></path></g><g transform="translate(384 231)"><path d="M0 -5L5 0L0 5L-5 0Z" fill="#625c98"></path></g><g transform="translate(753 241)"><path d="M0 -4L4 0L0 4L-4 0Z" fill="#625c98"></path></g><g transform="translate(172 89)"><path d="M0 -1L1 0L0 1L-1 0Z" fill="#625c98"></path></g><g transform="translate(703 427)"><path d="M0 -2L2 0L0 2L-2 0Z" fill="#625c98"></path></g><g transform="translate(850 142)"><path d="M0 -2L2 0L0 2L-2 0Z" fill="#625c98"></path></g><g transform="translate(347 221)"><path d="M0 -4L4 0L0 4L-4 0Z" fill="#625c98"></path></g><g transform="translate(281 563)"><path d="M0 -8L8 0L0 8L-8 0Z" fill="#625c98"></path></g><g transform="translate(136 529)"><path d="M0 -10L10 0L0 10L-10 0Z" fill="#625c98"></path></g><g transform="translate(492 214)"><path d="M0 -11L11 0L0 11L-11 0Z" fill="#625c98"></path></g><g transform="translate(728 173)"><path d="M0 -7L7 0L0 7L-7 0Z" fill="#625c98"></path></g><g transform="translate(647 400)"><path d="M0 -9L9 0L0 9L-9 0Z" fill="#625c98"></path></g><g transform="translate(93 599)"><path d="M0 -5L5 0L0 5L-5 0Z" fill="#625c98"></path></g><g transform="translate(458 599)"><path d="M0 -4L4 0L0 4L-4 0Z" fill="#625c98"></path></g><g transform="translate(521 590)"><path d="M0 -7L7 0L0 7L-7 0Z" fill="#625c98"></path></g><g transform="translate(598 155)"><path d="M0 -4L4 0L0 4L-4 0Z" fill="#625c98"></path></g><g transform="translate(102 348)"><path d="M0 -7L7 0L0 7L-7 0Z" fill="#625c98"></path></g><g transform="translate(279 295)"><path d="M0 -7L7 0L0 7L-7 0Z" fill="#625c98"></path></g><g transform="translate(636 534)"><path d="M0 -9L9 0L0 9L-9 0Z" fill="#625c98"></path></g><g transform="translate(707 2)"><path d="M0 -12L12 0L0 12L-12 0Z" fill="#625c98"></path></g><g transform="translate(607 333)"><path d="M0 -3L3 0L0 3L-3 0Z" fill="#625c98"></path></g><g transform="translate(749 355)"><path d="M0 -9L9 0L0 9L-9 0Z" fill="#625c98"></path></g><g transform="translate(776 184)"><path d="M0 -1L1 0L0 1L-1 0Z" fill="#625c98"></path></g><g transform="translate(624 28)"><path d="M0 -3L3 0L0 3L-3 0Z" fill="#625c98"></path></g><g transform="translate(307 402)"><path d="M0 -4L4 0L0 4L-4 0Z" fill="#625c98"></path></g><g transform="translate(8 382)"><path d="M0 -8L8 0L0 8L-8 0Z" fill="#625c98"></path></g><g transform="translate(79 1)"><path d="M0 -7L7 0L0 7L-7 0Z" fill="#625c98"></path></g><g transform="translate(431 332)"><path d="M0 -3L3 0L0 3L-3 0Z" fill="#625c98"></path></g><g transform="translate(147 238)"><path d="M0 -7L7 0L0 7L-7 0Z" fill="#625c98"></path></g><g transform="translate(468 288)"><path d="M0 -4L4 0L0 4L-4 0Z" fill="#625c98"></path></g><g transform="translate(238 261)"><path d="M0 -12L12 0L0 12L-12 0Z" fill="#625c98"></path></g><g transform="translate(817 263)"><path d="M0 -11L11 0L0 11L-11 0Z" fill="#625c98"></path></g><g transform="translate(311 164)"><path d="M0 -5L5 0L0 5L-5 0Z" fill="#625c98"></path></g><g transform="translate(545 385)"><path d="M0 -4L4 0L0 4L-4 0Z" fill="#625c98"></path></g><g transform="translate(466 394)"><path d="M0 -9L9 0L0 9L-9 0Z" fill="#625c98"></path></g><g transform="translate(189 460)"><path d="M0 -7L7 0L0 7L-7 0Z" fill="#625c98"></path></g><g transform="translate(142 368)"><path d="M0 -5L5 0L0 5L-5 0Z" fill="#625c98"></path></g><g transform="translate(292 26)"><path d="M0 -12L12 0L0 12L-12 0Z" fill="#625c98"></path></g><g transform="translate(593 187)"><path d="M0 -6L6 0L0 6L-6 0Z" fill="#625c98"></path></g><g transform="translate(486 83)"><path d="M0 -12L12 0L0 12L-12 0Z" fill="#625c98"></path></g><g transform="translate(402 172)"><path d="M0 -8L8 0L0 8L-8 0Z" fill="#625c98"></path></g><g transform="translate(879 401)"><path d="M0 -1L1 0L0 1L-1 0Z" fill="#625c98"></path></g><g transform="translate(93 436)"><path d="M0 -9L9 0L0 9L-9 0Z" fill="#625c98"></path></g><g transform="translate(133 148)"><path d="M0 -9L9 0L0 9L-9 0Z" fill="#625c98"></path></g><g transform="translate(630 428)"><path d="M0 -1L1 0L0 1L-1 0Z" fill="#625c98"></path></g><g transform="translate(107 188)"><path d="M0 -2L2 0L0 2L-2 0Z" fill="#625c98"></path></g><g transform="translate(219 404)"><path d="M0 -6L6 0L0 6L-6 0Z" fill="#625c98"></path></g><g transform="translate(349 375)"><path d="M0 -6L6 0L0 6L-6 0Z" fill="#625c98"></path></g><g transform="translate(723 325)"><path d="M0 -2L2 0L0 2L-2 0Z" fill="#625c98"></path></g><g transform="translate(427 487)"><path d="M0 -11L11 0L0 11L-11 0Z" fill="#625c98"></path></g><g transform="translate(147 209)"><path d="M0 -12L12 0L0 12L-12 0Z" fill="#625c98"></path></g><g transform="translate(287 536)"><path d="M0 -2L2 0L0 2L-2 0Z" fill="#625c98"></path></g><g transform="translate(492 450)"><path d="M0 -6L6 0L0 6L-6 0Z" fill="#625c98"></path></g><g transform="translate(250 502)"><path d="M0 -7L7 0L0 7L-7 0Z" fill="#625c98"></path></g><g transform="translate(583 476)"><path d="M0 -12L12 0L0 12L-12 0Z" fill="#625c98"></path></g><g transform="translate(119 42)"><path d="M0 -7L7 0L0 7L-7 0Z" fill="#625c98"></path></g><g transform="translate(335 6)"><path d="M0 -5L5 0L0 5L-5 0Z" fill="#625c98"></path></g><g transform="translate(834 293)"><path d="M0 -6L6 0L0 6L-6 0Z" fill="#625c98"></path></g><g transform="translate(221 319)"><path d="M0 -12L12 0L0 12L-12 0Z" fill="#625c98"></path></g><g transform="translate(214 103)"><path d="M0 -4L4 0L0 4L-4 0Z" fill="#625c98"></path></g><g transform="translate(105 493)"><path d="M0 -1L1 0L0 1L-1 0Z" fill="#625c98"></path></g><g transform="translate(217 597)"><path d="M0 -7L7 0L0 7L-7 0Z" fill="#625c98"></path></g><g transform="translate(35 192)"><path d="M0 -2L2 0L0 2L-2 0Z" fill="#625c98"></path></g><g transform="translate(691 370)"><path d="M0 -8L8 0L0 8L-8 0Z" fill="#625c98"></path></g><g transform="translate(190 277)"><path d="M0 -5L5 0L0 5L-5 0Z" fill="#625c98"></path></g><g transform="translate(73 86)"><path d="M0 -4L4 0L0 4L-4 0Z" fill="#625c98"></path></g><g transform="translate(136 468)"><path d="M0 -3L3 0L0 3L-3 0Z" fill="#625c98"></path></g><g transform="translate(146 91)"><path d="M0 -9L9 0L0 9L-9 0Z" fill="#625c98"></path></g><g transform="translate(422 417)"><path d="M0 -6L6 0L0 6L-6 0Z" fill="#625c98"></path></g><g transform="translate(337 535)"><path d="M0 -8L8 0L0 8L-8 0Z" fill="#625c98"></path></g><g transform="translate(706 113)"><path d="M0 -1L1 0L0 1L-1 0Z" fill="#625c98"></path></g><g transform="translate(848 190)"><path d="M0 -1L1 0L0 1L-1 0Z" fill="#625c98"></path></g><g transform="translate(892 228)"><path d="M0 -2L2 0L0 2L-2 0Z" fill="#625c98"></path></g><g transform="translate(111 282)"><path d="M0 -11L11 0L0 11L-11 0Z" fill="#625c98"></path></g><g transform="translate(458 194)"><path d="M0 -4L4 0L0 4L-4 0Z" fill="#625c98"></path></g><g transform="translate(40 430)"><path d="M0 -4L4 0L0 4L-4 0Z" fill="#625c98"></path></g><g transform="translate(261 148)"><path d="M0 -4L4 0L0 4L-4 0Z" fill="#625c98"></path></g><g transform="translate(341 473)"><path d="M0 -10L10 0L0 10L-10 0Z" fill="#625c98"></path></g><g transform="translate(871 310)"><path d="M0 -12L12 0L0 12L-12 0Z" fill="#625c98"></path></g><g transform="translate(520 528)"><path d="M0 -8L8 0L0 8L-8 0Z" fill="#625c98"></path></g><g transform="translate(396 585)"><path d="M0 -12L12 0L0 12L-12 0Z" fill="#625c98"></path></g><g transform="translate(536 244)"><path d="M0 -11L11 0L0 11L-11 0Z" fill="#625c98"></path></g><g transform="translate(213 154)"><path d="M0 -10L10 0L0 10L-10 0Z" fill="#625c98"></path></g></g></svg>